# xmcd
#
# Track frame offsets:
#	150
#	16578
#	30869
#	43718
#	60615
#	83479
#	96283
#	110709
#	123480
#	137146
#	157271
#	175837
#
# Disc length: 2554 seconds
#
# Revision: 0
# Processed by: cddbd v1.5.2PL0 Copyright (c) Steve Scherf et al.
# Submitted via: audiograbber 1.83.01
#
DISCID=9409f80c
DTITLE=Girls Guns - Tribute to Hank Williams (live)
DYEAR=1900
DGENRE=Country
TTITLE0=Jambalaya
TTITLE1=MoaninThe Blues
TTITLE2=Hey Good Lookin'
TTITLE3=Mov eIt On Over
TTITLE4=So Lonesome I Could Cry
TTITLE5=Honky Tonk Blues
TTITLE6=07 Dea rJohn
TTITLE7=Cheatin' Heart
TTITLE8=My Bucket's Gotta Hole In It
TTITLE9=Rockin' Chair Money
TTITLE10=I SawThe Light
TTITLE11=Old LogTrain
EXTD=
EXTT0=
EXTT1=
EXTT2=
EXTT3=
EXTT4=
EXTT5=
EXTT6=
EXTT7=
EXTT8=
EXTT9=
EXTT10=
EXTT11=
PLAYORDER=
